<?xml version="1.0" encoding="UTF-8" standalone="no"?>
<svg
   version="1.1"
   id="Layer_1"
   x="0px"
   y="0px"
   viewBox="0 0 807.9069 1650.246"
   enable-background="new 0 0 807.9069 1650.246"
   xml:space="preserve"
   sodipodi:docname="Dragon-Fixed.svg"
   inkscape:version="1.1 (c68e22c387, 2021-05-23)"
   xmlns:inkscape="http://www.inkscape.org/namespaces/inkscape"
   xmlns:sodipodi="http://sodipodi.sourceforge.net/DTD/sodipodi-0.dtd"
   xmlns="http://www.w3.org/2000/svg"
   xmlns:svg="http://www.w3.org/2000/svg"><defs
   id="defs932" /><sodipodi:namedview
   id="namedview930"
   pagecolor="#ffffff"
   bordercolor="#666666"
   borderopacity="1.0"
   inkscape:pageshadow="2"
   inkscape:pageopacity="0.0"
   inkscape:pagecheckerboard="0"
   showgrid="false"
   inkscape:snap-global="false"
   inkscape:zoom="0.51446875"
   inkscape:cx="562.71639"
   inkscape:cy="817.34799"
   inkscape:window-width="1284"
   inkscape:window-height="1041"
   inkscape:window-x="104"
   inkscape:window-y="0"
   inkscape:window-maximized="0"
   inkscape:current-layer="Layer_1"
   inkscape:document-units="mm" />
<path
   d="m 433.07304,396.83608 c 10.8965,-1.0538 17.07436,-11.35218 29.42146,-6.24678 7.7614,9.7809 5.943,22.6113 9.9589,33.2595 6.9944,2.4498 13.4207,-3.0791 21.3051,1.1532 4.5554,12.513 1.1594,28.4489 9.9117,40.3823 -18.7479,44.4355 -24.9564,49.9565 -45.388,39.8767 5.0815,-8.0039 15.8286,-10.9539 18.5533,-20.6732 0.9354,-6.6048 -6.6936,-9.8224 -6.324,-16.391 -1.7541,-8.8477 8.7393,-15.4347 4.9746,-27.0337 -9.3299,13.7049 -13.635,29.3323 -28.7878,37.5335 -5.8,0.7302 -12.8024,2.8195 -19.4203,-3.4271 5.4944,-9.1911 17.7151,-11.798 19.445,-24.4318 -3.9335,-10.2364 -10.2616,-21.6106 -4.3113,-34.6263 -4.137,-6.8494 -3.10495,-9.26648 -7.05525,-15.80678 z"
   id="path913"
   sodipodi:nodetypes="ccccccccccccccc" /><path
   d="m 428.82775,400.57643 c -1.42605,5.82132 -2.54334,11.71107 -3.73397,17.58328 -1.11859,5.52131 -2.39325,11.01825 -4.0831,16.39559 -0.64581,2.08988 -1.39479,4.14648 -2.01115,6.24569 -1.22815,4.04467 -2.35305,8.16343 -4.32824,11.92433 -1.39181,2.66286 -3.27243,5.10833 -5.6887,6.91851 -2.67438,2.03061 -5.90447,3.22171 -9.19208,3.7978 -0.64265,0.11426 -1.28908,0.20689 -1.93761,0.28057 -0.063,-6.01047 0.98961,-11.96122 2.24597,-17.81734 1.41043,-6.60825 3.09777,-13.19148 3.65169,-19.94541 0.23718,-2.9005 0.25522,-5.82404 -0.0441,-8.72075 -2.15643,-0.1812 -4.39407,-0.10873 -6.43557,0.67655 -1.50979,0.5723 -2.83569,1.59852 -3.7849,2.90291 -1.25475,1.70772 -1.94585,3.74888 -2.46732,5.78202 -0.37737,1.43736 -0.5884,2.91391 -1.01542,4.33884 -1.21196,4.17854 -3.41925,8.05773 -6.34596,11.27293 -0.63231,0.6913 -1.30021,1.3504 -2.00503,1.96775 -0.45782,1.98031 -0.43219,4.06312 0.0454,6.03716 0.56754,2.44434 1.74606,4.67719 2.6689,6.99452 0.6598,1.65762 1.16027,3.4282 1.05367,5.22906 -0.054,0.1618 0.092,0.55564 -0.2304,0.43234 -3.26717,-0.001 -6.605,-0.43677 -9.5876,-1.83801 -2.40655,-1.11499 -4.47852,-2.89295 -6.03437,-5.03328 -2.09919,-2.87188 -3.38309,-6.24803 -4.31444,-9.6565 -1.34069,-5.00669 -1.96329,-10.17332 -2.37571,-15.32975 -0.35565,-4.6089 -0.50767,-9.23126 -0.5655,-13.85274 2.09804,-1.3983 3.74832,-3.3933 4.92189,-5.61125 1.62262,-3.04878 2.4984,-6.41334 3.40324,-9.7255 0.97741,-3.59607 1.95762,-7.24573 3.78711,-10.52038 1.33905,-2.41707 3.20317,-4.56099 5.5052,-6.10368 0.42707,-0.28937 0.86706,-0.55959 1.31756,-0.81089 2.78724,0.88322 5.34079,2.39425 7.61233,4.21919 3.87038,3.08638 7.04792,6.96671 11.08997,9.84843 1.43189,1.02436 2.96548,1.91249 4.5905,2.59348 2.16758,-5.0428 3.27757,-10.44121 4.84222,-15.68171 1.13714,-3.81253 2.55117,-7.59969 4.80238,-10.90779 1.32308,-1.95393 2.93263,-3.715 4.773,-5.193 2.60449,0.15963 5.23212,0.39913 7.74161,1.1532 1.70184,0.51863 3.37767,1.34913 4.54568,2.72737 1.12915,1.31028 1.67307,3.02181 1.86326,4.71722 0.27679,2.51095 -0.0322,5.04292 -0.44971,7.52033 -0.63237,3.62205 -1.59792,7.17452 -2.59235,10.71077 -0.40195,1.49565 -0.80311,2.99178 -1.23844,4.47814 z"
   id="path915"
   sodipodi:nodetypes="csccscccccccc" /><g
   id="g927"
   transform="translate(-7.7750106,-3.8875053)">
	<g
   id="g893">
		
		
		<path
   d="m 437.2079,185.3752 c -0.009,0.1363 0.0205,0.2657 0.0179,0.4007 0.1389,0.0192 0.2801,0.0323 0.4182,0.0535 z"
   id="path883" />
		<path
   d="M 744.1725,839.9929 C 725.1467,765.522 680.5275,706.7737 619.8172,660.0367 574.504,625.1532 524.2715,598.0151 475.6138,568.4467 436.3755,544.6027 397.727,520.5098 367.6489,484.826 342.5418,455.0392 328.927,421.5997 328.5097,382.2612 c -0.3461,-32.599 10.6237,-61.9633 24.293,-90.1734 5.8353,-12.0436 16.7443,-21.6546 29.701,-29.3477 10.282,-6.1047 20.8108,-5.6787 31.9199,-8.5972 -0.513,-12.845 -16.7373,-19.4704 -10.5739,-34.7292 2.6245,-3.6339 6.4073,-8.8721 9.145,-12.6632 9.4771,-5.5476 19.045,-1.8167 27.108,-5.2908 1.5915,-6.2253 -2.9775,-10.5315 -2.877,-15.6836 -8.2413,-1.1451 -17.7184,0.9229 -23.7079,-8.9059 5.3096,-2.9301 9.6872,-6.5666 14.6696,-7.845 10.8465,-2.7831 22.0011,-4.3643 33.1124,-6.4521 3.3704,-5.1808 4.3999,-9.9407 -0.2687,-14.6641 -30.2708,-4.4953 -60.7846,-4.2692 -90.621,0.8552 -26.165,4.4938 -50.9016,14.2864 -72.9411,30.6392 -32.6768,24.2456 -52.7897,57.4251 -69.5651,93.1249 -3.4202,7.2778 -7.4958,13.2704 -13.5898,18.7328 -26.7252,5.1853 -45.8401,20.9314 -57.7039,45.4246 -4.3356,8.9507 -10.6595,14.003 -20.3673,15.1343 -14.1557,1.6496 -25.2535,9.6558 -31.3222,21.3188 -6.9002,13.2623 -16.7417,22.6076 -29.5009,31.1244 2.5353,19.627 -23.7927,32.4227 -14.0495,55.5431 3.3057,-1.2445 5.2568,-1.4654 6.4633,-2.5298 3.5666,-3.1458 6.0586,-7.2622 9.0309,-10.9195 17.6642,-21.7308 38.5903,-22.9474 59.1822,-3.4988 7.1432,6.7469 13.7773,9.0833 21.0197,1.3293 6.3265,-8.3809 1.428,-17.1916 1.5993,-25.7635 7.1218,-1.196 7.7921,8.6508 14.4424,8.5216 13.7624,1.8069 21.2626,-11.07 32.2516,-15.4166 1.3083,1.7597 2.4007,2.5685 2.5117,3.4949 0.4252,3.5392 0.4658,7.1222 0.7726,10.6783 2.6638,30.8963 10.1937,60.5383 23.1455,88.7429 16.4712,35.8682 41.7536,64.9952 72.0869,89.3807 12.271,9.8649 24.7383,20.5641 40.2368,25.9288 0.2386,1.7309 0.049,4.1661 0.9911,4.7388 9.9219,6.0298 19.2399,12.8926 30.0156,17.7345 23.9968,10.7823 50.1723,15.832 73.1942,29.4731 8.2068,4.8626 17.093,12.5033 28.554,9.2136 0.7699,6.0514 6.3789,7.5673 10.4926,10.0853 17.3115,10.5972 34.4046,21.7053 52.4768,30.8488 10.8142,5.4709 17.58949,16.19117 29.86489,18.96957 5.4351,-7.6387 11.18251,-15.10877 17.27831,-23.67687 -3.5683,-6.536 5.4709,-16.7928 -7.1698,-22.6291 -4.8661,6.1685 -1.1991,13.3626 -4.7718,20.817 -2.1071,2.5097 -5.4752,6.5214 -10.1561,12.0974 -22.9393,-8.8415 -40.295,-27.6664 -64.1432,-37.438 5.4657,-8.6984 14.5372,-11.4207 18.1099,-20.178 0.9954,-8.4969 -4.0814,-17.8429 0.7429,-28.9601 45.1558,22.785 81.4092,56.4131 114.3093,95.176 -1.9943,8.2787 -5.0632,16.038 -4.1976,24.8336 -5.668,5.6778 -8.3776,14.1439 -15.3015,16.8281 -10.0328,0.1223 -8.69966,-14.29186 -19.06906,-10.87446 3.8458,11.8577 10.91372,19.3058 20.73342,26.6775 3.8371,-5.9312 10.50314,-8.51324 14.97684,-13.68044 4.1669,-4.8124 5.5242,-11.7541 8.2732,-14.4651 4.2469,-8.484 -1.7676,-13.646 0.0708,-22.5473 21.4155,20.3762 33.9409,44.7896 49.5259,66.6907 -5.0907,17.2639 -14.6219,29.9031 -29.7508,39.5156 -4.6442,-3.8742 -9.4736,-8.89345 -17.4536,-9.68745 -2.9539,9.0716 3.5465,14.18535 6.3597,19.67375 4.6547,69.1965 -7.6924,131.2594 -58.1033,180.5641 -54.2798,53.0895 -120.3391,63.671 -192.606,51.8892 -13.9656,-8.3713 -28.2756,-16.6069 -43.6754,-23.0964 -14.0045,-5.9017 -28.9009,-10.4688 -39.8383,-22.4221 -10.8566,-11.8651 -23.576,-22.1134 -33.774,-34.4767 -27.1167,-32.8747 -46.6581,-69.08 -42.4309,-113.7095 1.0505,-11.089 1.4254,-23.1149 12.1968,-30.8843 1.3896,1.593 1.8598,1.9615 2.1084,2.444 1.8292,3.5482 -0.0319,6.9525 -0.4016,10.4369 -5.0033,47.1698 6.1862,89.8508 37.1037,126.2098 23.5629,27.7095 53.4771,47.3892 86.7822,61.3889 17.3347,7.2869 35.1439,13.8286 54.9641,12.0851 15.9945,-1.4071 32.9088,2.1831 48.115,-1.6288 36.6349,-9.1832 69.6346,-26.2312 96.7164,-53.7111 30.606,-31.0552 53.575,-66.257 64.0942,-109.0657 1.9625,-7.9872 3.7667,-14.7697 -6.1338,-19.1623 -8.5454,15.2975 -19.3242,27.6736 -33.7303,36.7454 -6.4471,4.0599 -8.8369,9.5004 -3.1563,16.0939 2.1613,2.5087 2.8071,5.101 1.5215,9.1089 -6.9435,7.3036 -16.1064,11.996 -26.4543,15.5837 -17.7437,6.1517 -36.1149,6.949 -54.4608,8.4185 -7.6243,0.6107 -15.6401,-0.0481 -20.6583,9.1207 13.0034,6.2192 29.9946,1.9598 40.1464,15.1697 -6.5092,7.0042 -13.8983,9.5513 -22.713,9.5259 -12.5415,-0.036 -25.0726,0.4558 -37.015,-4.3738 -5.4407,-2.2001 -10.3999,-2.6076 -13.1655,2.303 -3.1558,9.1161 8.0346,12.9167 4.4659,23.2006 -15.7323,16.2657 -34.9556,-6.8967 -50.9601,3.1639 -18.2663,-19.4077 -24.1366,-44.33 -40.6839,-62.0887 -13.4806,11.5795 5.453,22.991 -2.3321,34.6106 -6.8543,-2.4337 -12.542,-4.9714 -15.2359,-12.998 -5.0374,-15.011 -11.2617,-29.6204 -16.7526,-44.485 -2.226,-6.0248 -5.4281,-7.223 -9.6571,-4.0969 -3.3271,14.7889 13.8678,25.6118 6.2002,41.5233 -8.4698,-2.1167 -12.1212,-8.493 -15.9945,-12.4976 -11.2581,-25.7342 -9.1782,-53.1358 -17.8092,-78.1433 -11.3438,2.3157 -9.6029,11.3969 -10.3126,19.5491 -0.5977,6.8696 2.8971,15.6318 -7.2922,20.019 -8.6171,-9.2118 -5.3455,-20.8906 -8.68,-30.6527 -6.3212,-18.5067 0.3627,-36.1282 9.1371,-51.2805 16.2632,-28.0833 43.7846,-40.8151 74.7738,-46.5932 30.5985,-5.7049 60.0609,-1.0839 89.4753,8.3702 46.7097,15.0131 89.2236,35.7463 118.6838,77.1378 2.7193,3.8211 6.6555,7.9387 13.5247,7.7718 -0.2333,-21.4113 -13.9818,-36.057 -22.9913,-51.7209 4.0638,-6.4617 12.2802,-2.2432 16.1548,-8.4545 -16.3467,-24.1691 -46.7529,-16.3209 -66.5889,-31.1596 -1.0015,-3.6834 2.3203,-8.1501 -1.9253,-11.7596 -11.9197,-6.7455 -30.5907,4.9957 -39.1011,-12.8683 7.5159,-14.1234 25.1609,-4.6999 34.0087,-14.6689 -1.4962,-4.1816 -4.2653,-4.9077 -7.3726,-5.0634 -25.6878,-1.2878 -51.0637,1.4818 -76.2844,6.0175 -6.6913,1.2034 -13.7502,5.8928 -19.4973,-3.96 8.1399,-19.0679 32.1245,-23.7263 42.8731,-42.7446 -11.9896,-3.2648 -19.6926,3.0815 -27.6398,7.0759 -25.5572,12.845 -47.9489,30.6626 -71.6271,46.4677 -6.545,4.3684 -12.7482,11.235 -23.7162,6.0199 0.0817,-14.639 16.7837,-22.2029 17.187,-36.8708 -11.2695,2.9661 -14.8116,5.1663 -20.3786,15.1107 -7.8008,13.933 -14.338,28.6064 -22.6491,42.2093 -5.7781,9.4565 -8.41,21.7455 -19.4925,27.2526 -4.0769,-5.6417 2.5074,-14.2175 -6.9243,-17.2073 -6.7412,13.0941 -11.8621,26.132 -13.1669,40.1364 -6.4217,0.5104 -10.2688,-5.7515 -17.464,-2.6951 -59.7782,56.2941 -59.4291,122.7798 -29.0171,194.2752 2.8032,0.7406 5.501,1.4537 8.1989,2.1669 -1.5268,7.2656 1.5434,13.6556 3.5832,20.5032 3.3315,1.2968 6.4925,2.5273 9.6501,3.7562 0.6922,18.496 7.3595,34.2227 20.6893,47.3857 4.104,4.0527 6.354,9.954 9.5955,14.9154 5.7763,8.8401 6.787,17.6388 -0.0205,26.4049 -4.9732,6.4041 -5.9397,12.6016 -0.3544,18.5151 8.6949,2.8932 20.5853,-7.1001 24.8515,8.0931 -5.4814,11.095 -21.2845,16.5425 -18.4201,33.7412 1.7252,4.1111 4.5139,9.2775 8.0805,12.5444 16.8811,8.9276 23.9487,-11.4836 37.5368,-11.2811 5.1305,5.0112 5.4075,12.6794 12.3611,17.1143 3.9266,2.2638 10.6403,1.4572 14.3786,5.6002 7.7558,12.363 -9.2507,17.0291 -7.7034,27.2256 8.3453,4.1466 13.7489,0.7787 18.8453,-5.2588 13.467,-15.9536 11.401,-33.6071 6.4095,-51.6898 10.4266,9.1023 13.5496,24.8506 26.2506,28.7792 7.4285,10.0912 -4.9845,17.8351 0.0135,26.4928 23.6035,-8.819 19.7013,-15.359 12.8164,-51.8878 -6.6232,-7.3293 -12.3847,-16.2039 -17.0454,-25.1915 -12.6031,0.5863 -12.6031,0.5863 -24.7877,10.2582 -2.6655,-4.5084 -5.2943,-8.9545 -7.1122,-12.0297 -6.2837,-4.1884 -12.1767,-0.5021 -17.1241,-3.3594 -12.1758,-7.2073 -11.5811,-21.5679 -17.3675,-32.3066 -5.6129,-10.4166 -21.1123,-14.3226 -19.2482,-31.5204 12.2047,16.3253 27.5895,26.4792 42.6017,36.8857 14.3187,9.9258 30.3831,18.2053 48.1111,15.5516 10.6044,-1.5874 20.695,-1.1617 29.7735,2.1178 12.5,4.5154 25.07,6.9327 38.0563,8.4501 38.1088,4.4521 75.1745,1.3977 110.578,-14.6659 2.6306,-1.1935 5.8589,-0.7509 8.4117,1.3197 11.4906,41.3151 11.4906,41.3151 5.2048,56.7286 -15.6108,2.8446 -19.5043,19.0535 -29.8063,28.4071 -11.1484,10.1222 -29.1233,7.2655 -36.8708,20.5348 2.2028,8.0405 12.2099,4.1399 13.4343,12.2291 -15.5051,13.1052 -34.3159,10.4435 -52.5569,11.3658 -18.1824,0.9192 -36.5829,-3.5023 -55.5522,1.2775 6.7473,21.1565 33.3886,8.6805 41.3904,26.0709 -1.4573,1.7383 -2.3745,3.9681 -3.709,4.2548 -22.0828,4.7427 -44.0791,8.6521 -66.3123,-0.1306 -11.1856,-4.4187 -22.1388,-11.1121 -34.8533,-8.8229 -2.6485,6.8448 6.8045,9.2074 2.5956,17.9249 -4.8272,6.7423 -14.483,7.3049 -23.9369,5.7399 -20.5272,-3.3981 -40.6017,-8.6508 -59.9854,-16.5389 -15.3954,-6.2653 -30.9276,-12.6062 -48.1679,-11.3207 -4.7551,0.3546 -9.9787,0.073 -9.6081,6.9741 2.6201,6.415 12.0447,3.2614 13.7642,10.9813 -1.9301,9.2402 -9.5255,6.7307 -15.568,6.2343 -38.1542,-3.1348 -76.1013,-4.3079 -113.6084,6.0416 -7.7222,2.1309 -15.9451,2.1121 -22.5181,9.1128 7.8314,6.3615 20.875,2.8159 26.3691,15.6548 -17.4361,10.8518 -27.399,30.5579 -47.2743,38.8899 -18.5862,7.7916 -28.1864,24.574 -39.688,39.4352 -0.8608,1.1125 -0.3137,3.3145 -0.3898,4.5131 3.5417,4.4468 10.0036,0.5254 12.8994,5.6766 0.6546,10.1984 -11.1157,16.696 -9.138,27.7323 5.7602,-0.7422 9.1196,-7.8433 17.693,-2.0062 1.6408,36.6083 7.4888,74.4424 28.4233,108.0078 8.9208,-3.7219 3.4822,-13.8521 11.1699,-17.0746 15.5619,8.6554 27.7984,24.3258 45.7676,27.1495 7.1314,-6.7203 -4.6852,-10.4232 1.0898,-16.178 15.3797,-2.8196 27.2116,12.0054 43.9349,8.8303 15.3945,-2.9227 28.7353,-9.3726 43.1921,-14.4623 -11.1327,-5.9485 -22.4062,-3.7236 -33.3008,-3.7112 -28.0195,0.032 -54.077,-7.6361 -78.0166,-21.0929 -19.8669,-11.1675 -30.2765,-28.5183 -35.9099,-52.1678 -5.8869,-24.7147 -0.697,-45.235 11.0952,-64.2495 11.9184,-19.2183 29.4218,-34.5283 50.6979,-43.7628 32.9678,-14.3093 66.841,-24.219 103.5912,-23.3474 23.9718,0.5687 47.3852,4.7454 71.0914,6.8419 42.7459,3.7803 85.3568,7.7349 128.1408,-1.0608 40.1748,-8.2589 74.9512,-25.4988 103.7909,-54.9838 11.4128,-11.668 20.0077,-25.2013 27.8365,-39.0532 7.7344,-13.6852 12.954,-28.7913 19.7397,-44.3335 0.6257,11.8646 2.7604,22.6942 -1.948,32.8861 -13.7856,29.8403 -31.5197,55.9586 -58.6281,76.4061 -31.9331,24.0865 -66.8974,37.9174 -106.0221,42.4802 -37.6333,4.3889 -74.8655,-0.6484 -112.1428,-5.2354 -38.3898,-4.7238 -76.7122,-10.2322 -115.6158,-3.0707 -10.649,1.9603 -20.525,5.8433 -30.9534,8.1937 -30.6737,6.9139 -56.4157,22.7867 -74.0082,48.9794 -17.8905,26.6367 -19.953,56.7725 0.3732,81.2772 28.1462,33.9337 67.1355,47.3907 109.0717,46.4545 20.8733,-0.4658 43.8231,-2.5923 63.7263,-12.9363 7.3569,-3.8231 18.8938,-4.4755 17.603,-17.6918 -7.7348,-2.0555 -13.9246,-0.3622 -19.6882,2.9513 -11.0322,6.3427 -23.6197,9.1575 -35.5459,10.7026 -35.8029,4.6387 -69.8884,-1.6481 -100.1444,-22.8862 -20.6251,-14.4778 -26.1257,-47.3163 -11.0196,-65.0311 8.9728,-10.5219 18.4975,-19.7841 31.1893,-25.92 17.4007,-8.4126 53.6357,-17.8047 66.4648,-16.2296 -1.7558,2.1289 -4.2246,1.2802 -6.4335,1.5551 -2.0817,0.259 -4.7534,-0.4395 -5.1537,3.2097 47.7532,1.3245 93.6134,12.8574 139.3557,25.2528 9.1082,2.4683 18.8733,4.9396 28.0492,4.1373 12.23,-1.0697 23.6166,1.0441 34.984,2.3638 37.2195,1.4277 72.2018,-9.7548 110.4561,-19.6318 7.7502,-3.9618 17.4299,-10.7926 28.7318,-15.6458 16.334,-7.015 31.8675,-17.0789 44.3011,-30.0637 15.7908,-16.4905 31.5323,-32.932 45.0029,-51.8048 30.3127,-42.4695 40.7678,-90.6779 43.5181,-140.9141 1.3564,-24.7849 -3.4809,-49.7635 -7.4224,-74.4529 -0.4772,-2.9913 -0.5488,-5.9105 3.2651,-6.552 10.4563,13.3369 8.5551,29.5323 10.6385,44.6997 2.9155,21.2228 4.9885,42.8147 2.4418,63.9774 -3.4206,28.4244 -13.0995,55.312 -27.6577,80.2052 -3.3254,5.6854 -7.041,11.2533 -3.4049,18.2831 6.2802,0.4077 11.1341,-3.9434 13.2307,-7.9092 8.8365,-16.7157 21.1779,-31.741 26.6658,-50.0292 8.8268,-29.4136 14.0024,-59.6989 19.6402,-89.0743 -1.8196,-8.7825 -10.0198,-16.3899 -1.5897,-25.6105 11.5439,3.8016 15.4391,14.4966 22.095,22.7743 0.7346,-33.5487 -24.4359,-54.3676 -38.8909,-80.8643 4.1989,-4.7296 8.3929,-9.6917 12.8365,-14.4194 19.5764,-20.8291 26.1471,-48.7069 39.3401,-72.9902 10.8124,-19.9024 11.9049,-42.9245 17.2036,-64.628 10.4527,-42.8173 4.4355,-85.0189 -5.9321,-125.5981 z m -546.06,-515.1292 c 3.6255,-8.6955 12.0246,-6.0108 18.9432,-6.7652 -4.5201,6.8177 -11.6986,6.8758 -18.9432,6.7652 z M 402.6801,203.5043 c -11.2844,15.1114 -12.289,28.1288 -1.0566,42.2607 -14.2392,2.208 -25.7914,8.2732 -37.8973,15.1926 -5.7287,-3.1029 -10.7259,-8.302 -16.8877,-8.6671 -5.952,-8.3003 -4.6188,-16.911 -6.0525,-27.0929 14.7252,-18.0282 36.2076,-19.7193 61.8941,-21.6933 z m -70.6068,22.9791 c 0.0245,9.6328 -0.6096,18.2589 2.4291,27.3815 3.8899,6.9437 11.3569,10.1098 20.6054,13.2765 -11.7122,12.9848 -21.9452,24.3297 -32.1507,35.6443 -8.6896,-4.0197 -17.0126,-2.6933 -26.4233,-2.7977 -4.1233,-6.9282 -14.6324,-8.3682 -17.88,-20.158 7.3613,-26.6181 32.6533,-37.384 53.4195,-53.3466 z m -61.1704,58.5796 c 4.2592,11.3497 12.76,18.5058 21.6659,26.4204 h 26.2367 c -9.9778,17.147 -12.8251,34.5108 -23.7708,49.4248 -10.708,0.1311 -21.8167,1.8512 -34.786,-0.7418 -4.2653,-5.1788 -9.4622,-11.4884 -15.9399,-19.3524 4.2281,-19.1452 14.2488,-37.7205 26.5941,-55.751 z m -32.8166,67.8687 c 14.5927,22.8777 33.2072,23.8596 54.3847,18.0494 1.6404,16.0168 -6.9942,30.6497 1.2825,43.9991 -9.9127,14.9822 -22.6548,23.8976 -36.7996,31.2263 -8.2444,-3.3479 -13.5444,-11.5265 -23.1788,-8.5952 -9.436,-28.6095 2.8298,-54.0336 4.3112,-84.6796 z m -5.0034,93.4708 c 7.0894,4.742 10.9191,7.3042 15.7362,10.5266 h 15.651 c 8.7779,-6.0925 18.2423,-12.6615 28.1877,-19.5643 3.8803,23.6957 12.9344,44.4193 18.2375,65.9848 -7.7895,9.4906 -14.989,18.7467 -26.1799,25.0512 -5.5915,0.9401 -12.1876,-0.451 -17.738,2.2506 -22.5804,-22.8203 -26.5271,-51.7731 -33.8945,-84.2489 z m 111.6097,183.0587 c 1.1789,-3.7193 0.4304,-6.6861 -3.8821,-7.7125 -5.4102,-1.2878 -7.2931,-5.4052 -10.115,-11.4764 24.9839,3.7713 33.0473,-13.0939 41.0706,-30.653 -5.8576,-4.4788 -12.3956,-0.5807 -13.8734,2.619 -7.4976,16.2296 -22.4543,17.3517 -37.2095,20.326 -2.2028,0.1597 -4.0201,-1.3162 -5.4897,-3.2402 -15.0668,-19.7315 -35.9322,-34.9145 -46.0377,-58.5374 11.8791,-1.6183 24.8987,1.5639 34.3871,-9.6763 4.9553,-5.871 12.5057,-9.9241 10.0569,-20.808 18.4595,20.4383 32.6134,42.7848 49.5382,58.8022 24.7309,14.0052 47.0785,26.661 69.4366,39.3225 -0.6301,9.3512 -1.1422,16.9518 -1.6509,24.5025 -10.1767,13.7836 -23.9775,19.0496 -40.5794,19.0201 -14.6739,-8.0979 -26.6251,-22.5682 -45.6517,-22.4885 z m 163.3279,46.7126 c -2.6227,5.9153 -11.3342,6.2325 -12.077,14.119 h -18.7347 c -0.6847,-4.4438 -3.5814,-6.6009 -7.855,-7.8596 -15.8385,-4.6651 -29.4266,-15.0528 -45.9515,-18.1566 -1.945,-0.3653 -3.4578,-3.0302 -6.7547,-6.1071 10.1496,-3.6871 18.8816,-8.1899 24.0313,-16.7065 5.37,-8.8812 1.7453,-17.9862 -0.4649,-28.394 22.0959,12.8878 47.2638,18.2014 67.8067,33.699 v 29.4058 z M 200.0042,954.4743 c 3.071,10.8721 6.4768,21.7239 1.2047,33.1083 -8.0189,-10.5684 -1.7108,-22.0164 -1.2047,-33.1083 z m 16.7294,108.6944 c -8.6035,-13.1028 -9.2052,-29.3064 -16.7435,-43.0883 -3.2974,-6.0284 -4.6074,-16.4793 6.4803,-22.3398 9.6615,12.759 11.8839,28.9859 20.6627,41.9796 -4.4711,8.2088 -8.5183,15.4046 -10.3995,23.4485 z m 13.495,24.0505 c 0.797,-11.7207 -3.5098,-23.4862 0.1189,-35.1813 4.8207,2.5684 7.3123,6.9429 9.7261,12.2369 -4.9325,6.9399 -4.4309,16.1238 -9.845,22.9444 z m 148.1611,28.6824 c 8.9182,3.8486 17.8105,7.7587 26.7711,11.5051 5.5889,2.3364 10.7609,4.9352 11.9477,11.7401 -11.3359,1.6526 -30.8065,-10.1696 -38.7188,-23.2452 z m 65.2762,79.5444 c -11.5605,0.024 -21.0717,-6.3101 -33.6718,-9.1715 11.3525,-6.8063 20.9733,-13.088 28.505,-22.5076 3.4704,6.4551 -0.1364,11.7023 0.8425,16.9672 0.9605,5.1687 2.7556,8.6926 8.5017,7.3964 -1.334,2.3365 -2.6777,4.6887 -4.1774,7.3155 z m 110.1799,-10.0769 c -12.0185,-0.3597 -22.5443,-4.0984 -32.3596,-9.4637 -3.868,-3.8292 -2.7582,-9.0673 -4.326,-13.5726 -4.1255,-3.324 -8.6206,-5.3162 -16.2222,-5.0223 8.0779,13.7758 9.7003,29.8634 30.1362,32.6161 -24.9441,7.9714 -53.7004,6.8202 -82.3317,-2.2823 3.0391,-8.6931 0.6122,-17.2297 -2.1071,-27.5183 41.4241,-4.5612 82.1232,-9.2021 119.5713,-30.4297 6.33,17.6902 20.9266,24.0754 36.5715,28.5721 4.676,1.3439 8.8693,2.1477 10.1373,7.3606 -4.3837,-0.8307 -8.7412,-3.7029 -13.2005,-0.8854 -14.488,9.1545 -31.4247,12.7923 -45.8692,20.6255 z m -283.1361,259.0818 c -16.4232,7.2922 -31.5721,-1.8979 -46.9483,0.9561 12.5673,-8.094 74.3578,-5.3085 107.5091,3.5883 4.7281,5.1512 1.0365,15.093 10.2745,19.5272 -24.9742,-5.417 -49.1728,-9.3855 -70.8353,-24.0716 z m 128.926,26.479 c -11.8756,0.6139 -23.6297,-0.4481 -36.738,-0.6055 -2.579,-8.1208 -17.5567,-5.5674 -16.7649,-19.4136 h 49.2135 c 7.8061,1.577 5.0877,7.5295 7.7659,10.4142 2.5895,2.8108 6.1342,2.1394 9.3661,2.6232 -3.1444,4.3027 -6.7888,6.6689 -12.8426,6.9817 z m 13.4867,-7.1512 c 0.4623,-3.8898 -1.6413,-8.0818 2.4248,-13.3008 15.8704,0.4227 32.4089,-3.551 46.052,-8.5225 10.0198,1.9041 13.0043,8.0389 19.9329,15.2256 -24.3996,3.6597 -44.8267,17.2963 -68.4097,6.5977 z m 89.2236,-16.6481 c -9.8983,3.2699 -18.3371,1.3776 -25.0438,-9.8528 19.1918,-8.3756 35.1628,-18.4369 49.1943,-31.5215 9.7196,3.2898 13.7026,14.5306 25.2959,13.1625 -16.8648,10.7052 -31.5877,22.3125 -49.4464,28.2118 z m 63.0223,-40.8916 c -12.4087,8.5468 -19.988,-2.5541 -30.1249,-6.6683 11.1599,-14.506 21.5629,-28.0275 32.4841,-42.2234 9.907,12.4554 21.9841,8.4948 33.854,6.0015 -6.2548,19.1713 -20.2457,31.8925 -36.2132,42.8902 z m 36.7717,-43.993 c -0.1669,-1.9648 -0.3317,-3.9009 -0.4697,-5.5259 -9.4504,-6.4236 -20.9781,2.6105 -30.8301,-6.8944 4.1823,-17.295 13.5151,-33.8264 14.8872,-51.6442 15.3036,-2.8967 28.9791,2.4696 42.7333,-7.918 -2.7094,27.7955 -12.0265,50.7592 -26.3207,71.9825 z m 26.5653,-83.7676 c -13.0121,9.046 -26.1895,9.0244 -40.5353,6.2717 -6.7154,-21.3311 2.0066,-42.0619 -3.1445,-62.2177 11.3456,-4.8334 24.9625,-0.2257 31.5406,-13.6023 0.6677,-2.8126 0.4492,-6.1781 -3.0867,-8.9833 -8.0473,-1.0979 -11.4775,7.2155 -17.9675,9.4958 -5.1021,0.7402 -9.2612,-1.3933 -13.6693,-4.7424 -2.6219,-3.5919 -2.4523,-8.3105 -2.6105,-12.7751 2.2657,-4.5792 4.9911,-7.6602 9.9551,-9.6931 8.9553,-3.6672 20.3284,-4.3828 24.1134,-15.8815 11.4653,9.0975 6.1307,21.4858 6.5786,33.17 12.2886,24.7555 7.842,51.5662 8.8261,78.9579 z m 36.6786,-159.7011 c -17.2106,13.1171 -27.5695,34.4971 -50.909,31.4935 -15.0773,-1.9404 -30.1581,-7.2046 -39.0278,-23.4939 17.1031,-13.6929 35.934,-24.8011 52.5538,-44.7676 1.9655,20.1338 15.9189,23.5594 24.585,29.7036 8.7027,3.0989 18.8662,-4.2738 22.7575,7.2474 -3.9254,5.5821 -8.1715,-2.7954 -9.9595,-0.183 z m 62.2225,-125.4072 c -1.9611,7.7407 -7.193,8.4987 -9.6304,13.6735 6.8653,18.8335 0.1102,36.9991 -8.6385,54.575 -8.4384,16.9513 -18.9108,32.4304 -37.5311,42.4951 -4.8443,-6.496 -11.9346,-1.407 -17.0581,-2.2595 -10.8583,-6.349 -14.4498,-16.6233 -20.6876,-26.8336 12.5752,-17.4471 20.5377,-36.3154 27.1657,-54.8505 8.2177,-0.4623 8.8941,7.9263 12.0482,8.0851 12.1758,1.6543 21.6306,2.4426 31.2942,0.063 4.6066,-3.3243 9.4404,-6.5986 12.4345,-11.3107 -1.1191,-6.5301 -5.9547,-7.7346 -9.3459,-5.2408 -14.5774,10.7184 -28.1332,8.0879 -42.9618,-2.3129 0.8193,-20.9751 5.1549,-42.4643 3.1501,-66.295 17.6974,3.3018 34.0218,6.9295 45.8471,-8.2596 1.941,-2.4932 1.7501,-2.642 -1.9567,-13.8651 -10.7443,7.1746 -20.6849,16.6584 -35.2191,12.9767 -6.9243,-2.574 -12.2938,-7.46 -11.8157,-15.5073 1.0146,-17.0677 -7.117,-31.8112 -11.7664,-48.8484 21.6812,-2.5926 34.3211,-16.2187 43.5338,-38.9139 7.4001,31.0624 24.9323,55.1763 21.4431,86.5402 16.608,23.665 7.4002,52.1687 9.6946,76.089 z"
   id="path885"
   sodipodi:nodetypes="cccccccccccccsccsccccscccccccccccccscccscccccccccccccccccccccccccsscscccccsccscsscssccssccccccccccccccccscccccccccsccccccccccccccccscsccccccccsccccccccscssscsccsccscccsccssscccsccssccccccccscssssssscsscssssscscsccssssscscsccccssccccsccccccccccccccccccccccccccccccccccccccccccccccccccscccccccccccccccccscsccccccccscccccccccccccccccccccccccsccccccccscccccscccccscccsscccsccccccccccccccsccccsccccccccccccccccccscccccccc" />
		<path
   d="m 304.5471,911.1342 c 0.0699,0.1995 0.1259,0.4022 0.1949,0.6021 0.0599,-0.0122 0.1084,-0.0302 0.1687,-0.0419 z"
   id="path887" />
		
		
	</g>
	<g
   id="g899">
		<path
   d="m 732.3249,336.2042 c -15.7341,3.6223 -8.3029,22.5032 -19.2469,29.2153 -10.5245,6.4552 -17.8778,16.5645 -25.8744,26.0468 -9.304,-8.1758 -0.4152,-18.3141 -4.7123,-25.2736 -2.7459,-6.3813 -9.0169,-9.2112 -10.5048,-15.8614 0.0983,-7.3608 7.5282,-13.467 4.4497,-23.8784 -3.5425,-5.6819 -8.2242,-13.1902 -13.0156,-20.8755 7.0261,-14.0854 9.3438,-29.266 7.744,-43.8106 -2.1381,-19.4418 4.2438,-35.7496 11.0458,-53.0132 9.3145,-23.6406 17.7563,-47.4694 21.0092,-73.3388 2.5192,-20.0396 -0.5401,-39.263 -1.8326,-58.6622 -0.7525,-11.2979 -6.2692,-22.8246 -14.431,-32.6023 -7.0554,23.9653 2.9028,47.6463 -1.6487,71.8799 -4.5305,24.1213 -8.8242,48.1688 -18.7277,70.3315 -9.7122,21.735 -17.2307,45.4584 -37.3118,62.2484 -4.6061,-8.4803 -6.8779,-18.4732 -18.14,-16.5228 -4.7036,2.2303 -2.5047,8.6186 -8.8679,10.0641 3.2511,-14.6956 -1.1392,-29.1594 0.2731,-45.5321 16.0286,9.6328 16.6495,30.4707 33.7111,35.213 4.7289,-6.9061 5.2699,-13.8689 5.3241,-21.1573 0.2989,-40.3146 3.1375,-80.7105 -8.14,-120.3465 -2.5851,-9.0875 -7.6068,-14.7688 -15.2189,-21.9279 1.855,34.2713 15.6987,65.1499 9.8188,98.093 -7.3779,-1.4123 -8.5563,-5.6677 -9.4902,-9.6794 -2.6922,-11.5704 -4.3893,-23.4143 -7.7379,-34.7795 -3.9834,-13.5206 -6.628,-28.432 -25.3535,-36.6862 2.5589,17.9084 8.947,32.8474 5.6749,53.2863 -6.652,-12.2068 -12.4406,-7.7337 -18.6775,-1.0986 -29.8522,-33.3943 -41.4573,-80.2624 -84.4213,-100.6777 10.8937,21.9948 32.6309,37.7472 38.1761,62.466 -7.1074,5.3855 -11.5151,2.2445 -15.8639,-1.1182 -7.9966,-6.1825 -16.0827,-12.2547 -23.9399,-18.61 -23.0756,-18.665 -46.8001,-36.3552 -72.741,-50.9603 -7.7654,-4.3719 -14.8715,-5.3232 -26.7593,0.9779 16.9222,9.5703 32.148,16.6043 41.8584,29.8338 9.6405,13.1336 18.0793,27.1489 27.5843,41.5971 -13.6733,5.1534 -23.4977,1.0406 -32.7921,-4.359 -20.9948,-12.1972 -41.4861,-25.2887 -62.7501,-36.9831 -10.396,-5.7171 -22.1322,-8.7477 -35.573,-8.4552 1.7798,9.2195 6.285,13.7712 13.0078,15.2932 13.4919,3.0542 20.6146,12.906 27.7621,23.0243 -1.5255,7.1895 -4.8333,11.8553 -11.6405,12.5942 -12.4782,1.3548 -25.1189,2.0732 -36.9897,-2.9561 -34.4631,-14.601 -69.7036,-26.7433 -106.411,-34.2726 -7.6999,-1.5794 -16.2357,-4.2074 -23.4737,6.8616 35.5748,11.9486 72.6348,17.7063 101.3133,43.2168 -5.7431,5.2581 -12.6333,0.8595 -16.504,6.8336 -1.8943,3.9421 4.1294,8.6525 -1.359,14.1542 -4.9146,1.8281 -11.4976,2.0669 -17.8521,0.6613 -27.0984,-5.9931 -53.3421,1.7385 -79.8483,4.7641 -4.6625,0.5322 -11.512,1.5377 -8.5061,11.2138 24.3144,-0.008 49.9337,-2.9303 71.4222,13.1782 -2.9439,12.2558 -11.4565,15.979 -19.5689,19.0467 -32.8358,12.417 -55.4269,38.0896 -80.263,60.9028 -2.8984,2.6622 -4.0901,5.6999 -1.8239,10.9081 10.7583,2.2004 14.6656,-11.3943 22.7243,-12.1279 9.876,-0.8991 17.1817,-11.6497 28.2109,-7.0593 -4.5244,15.4236 -11.3508,28.3475 -22.6234,39.6384 -7.7331,7.7453 -12.3169,18.7282 -17.8595,28.5179 -2.0214,3.5712 -1.8327,7.6464 3.2039,12.4625 13.949,-20.8294 32.2459,-32.6838 54.3952,-32.0384 9.2039,-5.6096 12.1321,-12.9617 15.821,-19.7435 18.085,-33.2496 41.5596,-62.4787 69.3344,-87.8438 35.4205,-32.3471 80.9395,-37.6277 125.8724,-42.0885 21.5838,-2.1427 43.6133,-1.4175 63.9465,3.3479 6.5961,-6.737 2.6314,-12.8083 3.1244,-18.3941 2.2023,-0.905 4.4169,-0.6714 7.7729,0.9841 -3.7641,8.3789 2.0424,14.5575 6.1443,21.3917 5.3053,8.8397 14.7972,15.5001 14.5136,27.2839 -4.3247,0.3974 -7.8257,-1.1302 -10.2365,-4.8261 -4.7652,-7.3051 -9.4932,-3.706 -13.0554,-1.872 -4.9216,10.2649 8.139,12.1898 5.2708,22.288 -15.5973,-8.1008 -31.9999,-13.1022 -49.841,-12.8064 -1.2581,4.2533 -2.364,7.9927 -3.4669,11.7216 16.4433,3.7263 37.4232,17.7194 45.1279,30.6348 -12.4384,2.2152 -23.4672,7.8622 -35.899,10.1 -8.649,1.5571 -20.3393,4.4079 -19.1429,19.0924 10.4174,2.8609 22.5154,-2.8624 30.5784,7.0512 -3.9664,13.3119 -3.9664,13.3119 -0.6537,24.974 -15.655,21.6765 -17.9307,53.4286 -4.8994,66.1672 8.1548,-0.834 1.4254,-14.8898 12.1837,-13.9038 0.1827,28.5902 3.4276,35.942 23.2592,47.0781 -6.2946,-15.6277 13.1843,-15.1107 12.9768,-26.4899 -1.8484,-3.0691 -4.2382,-3.5194 -6.5135,-4.1659 -3.0422,-0.8641 -5.3341,-2.5406 -6.2893,-5.7049 5.0383,-15.9991 10.3973,-17.6685 31.2662,-9.8098 12.4463,14.3303 13.4543,29.3964 5.4045,46.4934 -3.4351,7.295 -8.5323,12.6615 -13.1751,18.6943 -8.521,11.0716 -8.6494,17.6742 1.3979,26.1722 5.5216,4.6701 9.8249,10.3436 15.0616,15.0616 9.5771,8.628 17.9844,19.3609 31.9658,21.525 6.9229,1.0714 13.4338,1.3288 13.3267,-7.5883 -2.8049,-7.1104 -12.7176,-3.1464 -13.6173,-10.7434 0.2089,-6.9636 11.3813,-5.8045 9.1309,-15.3871 -4.6651,-6.3634 -17.3294,-5.9387 -20.0596,-18.0673 4.0053,-7.9833 8.4707,-16.8822 12.923,-25.7761 1.5958,-5.4272 -3.8511,-10.1633 -1.512,-15.6584 2.9702,-9.5214 13.561,-13.098 18.2257,-23.2515 -8.6748,-12.7358 -12.3785,-27.1519 -6.6101,-43.016 3.6068,-3.7315 7.3595,-7.5607 13.6292,-6.3544 6.468,3.6424 8.9483,9.1578 7.8528,16.2283 -13.0842,22.2993 -12.556,24.1534 8.1006,38.7336 9.9774,7.0424 17.3815,17.3209 28.9691,22.5497 3.6409,1.6432 5.4272,6.1698 5.0829,11.3112 -4.7673,4.4571 -11.4854,8.6466 -7.3726,18.4444 3.3966,5.4292 11.9154,8.4475 13.1367,16.457 -0.1359,6.6695 -9.4766,6.1593 -8.7696,13.7791 2.2687,8.8734 12.3978,3.4604 17.7157,8.0772 0.3094,5.4569 5.7082,8.4646 7.1445,13.6093 -2.1543,2.2773 -4.2098,4.4263 -6.2382,6.6007 -2.382,2.553 -5.8493,4.3324 -6.0525,8.4504 10.9995,5.0293 25.1324,-0.2327 32.8913,-13.5031 9.72,-16.6257 22.0273,-30.6868 37.3664,-42.2325 1.3354,-1.005 2.0135,-2.8831 3.3289,-4.853 -0.527,-4.3394 -1.0951,-9.0217 -1.6465,-13.5612 12.7345,-17.446 21.4949,-40.6074 14.9906,-56.522 z M 519.6772,149.5424 c -6.3772,0.0313 -8.396,-4.7647 -10.3956,-9.5819 4.805,1.7483 8.223,4.9931 10.3956,9.5819 z m 21.6096,29.4998 c -4.7477,4.8897 -2.5585,9.7989 0.1437,14.6008 9.9595,17.6971 13.1481,36.5344 9.845,57.863 -21.3618,2.0774 -19.3422,22.8515 -27.4594,37.2436 -2.5987,-9.8539 0.1713,-21.8788 7.6003,-32.4629 6.915,-9.852 12.2225,-20.2856 14.8308,-32.864 -8.0241,-22.0391 -11.6729,-46.3112 -25.3593,-66.9144 -1.057,-1.591 -0.5493,-4.2216 -0.6113,-6.4737 22.2878,4.1833 39.4805,19.9452 61.191,26.9765 -3.6811,5.4307 -7.2214,10.6975 -12.2379,14.6877 -17.6024,-12.3151 -17.6024,-12.3151 -27.9429,-12.6566 z m 26.3219,58.0677 c 1.2768,-6.607 4.0018,-16.5837 13.5199,-24.7636 7.3787,15.5301 -10.1762,19.0559 -13.5199,24.7636 z m 36.0196,-60.7697 -1.6216,-15.5796 c 4.2513,4.8445 3.2039,10.1871 1.6216,15.5796 z m 31.7133,152.7982 c -8.919,-6.6796 -9.3193,-13.0622 -6.2745,-24.0348 4.2207,8.8898 9.8659,13.54 6.2745,24.0348 z"
   id="path895" />
		<path
   d="m 437.644,185.8295 c 0.031,-0.106 0.0638,-0.2156 0.0948,-0.3216 -0.1748,-0.0398 -0.3566,-0.0953 -0.5309,-0.1326 z"
   id="path897" />
	</g>
	<path
   d="m 304.9105,911.6945 c 1.4781,-13.7962 1.9168,-27.4149 -7.3079,-38.9567 8.8642,-21.9623 27.5386,-29.8647 47.492,-34.3813 31.6959,-7.1746 63.0425,-5.6024 94.9685,2.7247 53.9214,14.0639 94.1133,46.1258 126.8312,89.3266 6.2748,8.2852 13.7772,16.7169 11.4692,30.1654 -9.2087,13.0581 -22.4191,21.2849 -39.666,21.1569 -20.1229,-0.1492 -40.2131,0.0844 -60.087,2.5034 -33.0492,-37.148 -72.3582,-58.7462 -122.9326,-57.6208 -9.6442,7.9188 -22.2408,9.1314 -34.1119,13.2892 -3.5785,-10.8433 -11.1385,-19.2971 -17.019,-28.7676 z m 212.4942,61.349 c -21.5201,-24.3307 -43.6043,-40.0316 -70.0432,-51.2831 -12.6137,-5.368 -25.7746,-3.2053 -37.6219,-8.3104 -12.5767,-5.4196 -25.6273,-4.9261 -38.7036,-4.5212 -6.8837,0.2131 -13.6774,1.5412 -16.9331,11.5186 19.9357,-4.6673 38.6874,1.2477 56.5907,2.1989 6.0988,2.3081 6.1374,8.5698 11.876,11.458 13.3806,-4.0623 20.7162,10.1962 32.3969,13.4778 14.3931,-7.8209 14.3931,-7.8209 22.7838,1.1031 -2.4171,6.4994 -12.3638,-0.0396 -14.1394,8.9555 4.8146,5.1731 9.894,10.6307 14.3354,15.4027 12.5008,10e-5 23.7565,10e-5 39.4584,10e-5 z M 328.2843,926.1456 c 8.3484,-3.2169 8.3484,-3.2169 11.2455,-9.853 -6.4812,-0.2187 -8.1078,4.4075 -11.2455,9.853 z"
   id="path901" />
	<path
   d="m 466.1728,541.777 c 21.8947,-5.6107 118.2728,14.5865 130.6568,27.6683 -10.1188,3.7464 -21.7415,-3.762 -30.8619,4.7024 1.415,10.4622 10.4449,13.3004 17.676,15.2803 16.3602,4.4797 30.342,12.3017 44.0087,22.1948 19.1749,13.8801 42.2087,21.2539 61.9926,34.4741 16.5008,11.0262 30.5856,24.6771 44.7005,38.3333 4.0252,3.8943 8.9755,8.1674 6.9672,16.6823 -13.9356,-2.707 -23.436,-14.9925 -37.0107,-17.8101 -4.1215,7.0716 0.856,10.2765 4.8137,13.696 16.1916,13.9903 30.5184,29.7446 43.8074,46.4499 3.649,4.5872 8.2039,8.734 9.4249,14.8636 1.5717,6.5856 -4.1006,11.0355 -4.8824,16.6506 6.5474,24.5999 21.4922,45.0728 31.3955,67.8867 3.0984,7.1378 4.7675,13.3735 1.3427,20.3068 -5.4148,10.9625 -3.2968,22.5152 -1.1255,33.2894 4.7238,23.4405 5.7404,47.0624 6.5269,70.7765 0.0383,1.1539 -0.4142,2.3242 -0.6671,3.6366 -2.234,4.7556 -7.8721,4.7016 -12.1031,8.2034 -6.874,12.8649 -2.3929,30.9034 -16.0949,42.0092 -4.6931,3.4968 -11.515,-0.8242 -16.0352,4.284 -4.6984,-5.7586 -1.0021,-11.0999 1.0939,-15.3241 20.9287,-42.1782 17.8591,-87.5977 13.4622,-131.5229 -3.5184,-35.1498 -18.2946,-68.7534 -34.6306,-100.754 C 704.6222,726.8068 672.2549,680.7618 626.827,645.1904 594.566,619.9289 560.61,597.1617 523.8037,578.7533 507.3834,570.541 491.6792,560.85 475.9581,551.3214 c -3.635,-2.2035 -8.5979,-4.1457 -9.7853,-9.5444 z"
   id="path903" />
	<path
   d="m 589.253,349.7232 c 19.5113,21.7916 26.887,45.5831 20.967,73.4111 -3.0192,14.1923 -0.3906,28.6295 1.5092,42.7012 1.8591,13.771 11.9236,23.2291 29.5997,31.4949 23.351,-6.6006 45.1132,-20.7357 69.6741,-22.2389 12.1865,8.9537 12.1865,8.9537 9.9853,19.2747 -6.84,2.5308 -8.1063,-6.304 -15.0865,-6.5257 -2.2274,0.2452 -5.1522,2.0255 -7.934,6.4449 -0.0764,6.9701 10.6337,16.428 -1.7276,23.4983 -9.3211,-1.3364 -8.5729,-13.1712 -20.9273,-16.0247 -2.1663,-0.3661 -6.9423,3.3387 -12.3923,5.6383 -23.6913,9.9965 -44.1793,2.214 -57.045,-20.2616 -6.822,-11.9175 -15.351,-22.9733 -10.5485,-38.1042 0.5914,-1.8635 -0.8225,-4.5945 -1.8076,-6.6881 -4.8307,-10.267 -5.5512,-20.5084 0.4407,-30.559 -4.991,-8.7583 -11.6595,-16.6725 -5.7607,-26.1078 -15.2351,-15.4984 -15.0035,-22.1858 1.0535,-35.9534 z"
   id="path905" />
	<g
   id="g911">
		
		<path
   d="m 135.9598,589.1302 c -5.3162,-2.7427 -10.6779,2.6498 -17.9159,-2.0127 -4.981,-3.3015 -10.8653,-8.7779 -10.4393,-19.3487 6.3199,-0.0118 14.2042,5.1506 19.655,-5.451 -8.6442,-7.1139 -20.7667,-11.0473 -26.9874,-24.8117 4.5262,-15.52 -7.546991,-31.71405 -2.673891,-49.81275 C 87.232409,483.42955 81.9543,471.2144 67.106,476.2763 c -8.2636,14.4428 3.430595,30.4613 -1.425905,43.5423 3.8191,10.6787 10.964605,16.7548 14.961105,24.4108 -7.8249,12.1774 -9.8253,18.8117 -8.0538,26.2797 4.1023,17.2969 23.4304,35.2977 41.1444,37.3179 9.9752,1.1375 18.57,-2.8276 24.3927,-11.2057 1.7925,-2.5792 0.4663,-5.7075 -2.1647,-7.4911 z"
   id="path909"
   sodipodi:nodetypes="cccccccccccsc" />
	</g>
	
	
	<path
   d="m 100.73499,482.19248 c -0.4008,-12.1937 -6.16739,-18.39658 -11.62259,-27.97828 2.7307,-10.056 2.7307,-10.056 10.3753,-16.0317 13.3116,0.5831 18.9455,10.8678 23.6317,20.9134 11.3811,24.3972 16.3952,51.3522 29.5255,75.1213 0.3926,0.7106 -0.5564,2.1624 -1.0352,3.8 -7.4439,5.0316 -11.6176,-1.1843 -16.0252,-5.4724 -14.1181,-13.7352 -20.46482,-29.01353 -32.07372,-44.64163 0.21459,0.0291 -1.86543,-3.82909 -2.77579,-5.71069 z"
   id="path917"
   sodipodi:nodetypes="cccsscscc" />
	<path
   d="m 164.8878,537.4288 c 5.6357,-10.019 11.435,-18.8348 4.2049,-31.4787 -12.1945,-12.0011 -26.7119,-25.5648 -34.4974,-48.9779 13.5671,5.072 23.9693,4.595 34.4836,4.9533 8.782,6.5027 12.3949,17.3671 20.7874,23.1117 2.6722,12.7356 0.0789,24.5702 -0.6273,36.1934 -0.9006,14.8223 -10.6039,20.9673 -24.3512,16.1982 z"
   id="path919" />
	<path
   d="m 398.27666,1219.9002 c 6.4247,-5.214 12.2959,-3.5068 17.765,-3.2163 24.8051,31.8702 27.0166,41.8765 10.9532,56.1793 -2.1766,-21.9072 -27.3903,-29.9971 -28.7182,-52.963 z"
   id="path921" />
	<path
   d="m 630.8786,839.24509 c -5.93287,-6.51307 -9.52139,-10.60571 -12.02723,-14.92653 -2.50584,-4.32082 -3.92899,-8.86981 -5.53115,-16.2956 l 6.90538,2.02841 c 5.85375,3.36845 10.10576,8.40458 13.05914,14.54069 2.95338,6.1361 4.60812,13.37218 5.26732,21.14053 z"
   id="path923"
   sodipodi:nodetypes="csccscc" />
	<path
   d="m 594.64882,775.63196 c -13.2478,-3.4792 -19.03856,-11.92721 -23.88226,-23.81331 l 2.87334,0.26686 c 13.38533,5.52799 15.01393,9.93946 20.4933,20.22592 z"
   id="path925"
   sodipodi:nodetypes="ccccc" />
</g>
</svg>
